<?xml version="1.0" encoding="UTF-8"?>
<svg id="Layer_1" xmlns="http://www.w3.org/2000/svg" version="1.1" viewBox="0 0 1536 1024">
  <!-- Generator: Adobe Illustrator 30.1.0, SVG Export Plug-In . SVG Version: 2.1.1 Build 136)  -->
  <defs>
    <style>
      .st0 {
        fill: #8abfeb;
      }

      .st1 {
        fill: #2d6aae;
      }

      .st2 {
        fill: #f3f6f6;
      }

      .st3 {
        fill: #8f9764;
      }

      .st4 {
        fill: #64a9db;
      }

      .st5 {
        fill: #1966a2;
      }

      .st6 {
        fill: #fdfafd;
      }

      .st7 {
        fill: #828950;
      }

      .st8 {
        fill: #295e8f;
      }
    </style>
  </defs>
  <path class="st6" d="M-22,1067V43h1536v1024H-22ZM500.68,371.04l.25,5.4c2.42.1,6,.19,6.96,1.56,2.36,3.35,1.63,8.88.35,12.8l-15.57,47.66c-31.8,13.27-59.36,28.01-81.95,54-8.45,9.72-14.48,20.61-15.77,33.56s2.25,26.45,12.23,34.69c29.45,24.32,80.78,13.58,114.3,2.48,26.72-8.85,51.11-22.59,71.33-42.18,5.69-5.51,10.31-11.86,14.67-18.33,8.75-12.98,12.48-28.13,10.31-43.56-3.18-22.63-25.69-31.87-46.56-33.76,24.12-12.48,43.43-24.05,60.53-43.55,14.7-16.76,20.22-47.69-1.29-62.28-26.36-17.89-69.45-12.62-99.1-4.83-28.44,7.48-54.75,19.24-78.94,35.78-10.37,7.09-20,14.25-27.46,24.26-5.49,7.38-8.17,17.55-4.32,25.88,9.03,19.55,43.66,13.2,58.8,4.96.87-.64.2-4.53-.56-4.5-7.92.96-21.62,1.99-25.27-6.66-3.99-9.45,6.01-20.27,13.37-26.6,17.98-15.47,39.08-25.66,61.84-32.2,20.16-5.79,67.93-16.67,79.62,7.14,3.71,7.56,2.68,16.58-.14,24.34-10.62,29.27-49.19,50.16-78.97,58.63,3.54-14.33,7.45-26.24,11.75-39.19l9.64-29.08c-3.79-2.02-8.36-.9-12.75.83-12.31,4.87-24.43,8.67-37.31,12.76ZM1021.34,448.23c1.08-1.17,2.97-4.01,2.41-5.28s-2.91-3.3-3.88-3.65c-4.66,7.05-18.38,16.65-23.93,11.37-1.35-1.28-2.74-5.46-2.13-7.59l12.22-42.76,16.19-54.68,11.21-38.86c-13.23,2.49-24.6,5.46-36.88,8.9-8.4,2.36,5.99,6.6,3.36,15.78l-12.42,43.46-16.62,55.45-4.89,17.6c-1.55,5.56-1.89,11.81-1.25,17.39.68,5.91,5.18,9.57,10.86,9.89,20.78,1.17,33.52-13.71,45.75-27.03ZM963.79,429.7c3.04-11.81,1.26-23.69-.89-34.67-1.41-7.22-8.86-12.42-15.52-14.23-29.64-8.04-58.49,15-70.24,40.96-3.13,6.92-3.67,14.71-3.84,22.3-.26,11.72-6.58,21.91-18.05,25.7-2.02.67-5.69-.44-6.96-1.8-1.13-1.21-2.56-5.22-2.17-7,3.33-15.08,7.71-28.84,12.4-43.35l8.32-25.76c5.36-.61,10.68-.59,15.86-1.93,3.15-.86,4.86-7.17,5.79-10.42l-17.69.33,11.36-39.27-33.54,9.79c1.91,3.47,1.74,6.64.55,10.45-4.6,14.72-2.78,23.74-19.77,24.55l-5.64,9.8,15.32.77-18.36,61.44c-2.15,7.2-2.35,16.1.31,22.91s11.29,9.38,18.04,8.56c9.2-1.12,16.99-6.08,23.33-12.48l11.25-11.36c3.82,5.9,6.47,12.75,13.46,14.97,12.41,3.94,27.37,3.72,39.28-2.95,17.75-9.93,32.17-27.03,37.39-47.3ZM740.57,381.68c11.16-2.2,18.67-11.81,19.37-22.64.4-6.22-4.69-11.24-10.99-10.93-12.57.62-22.18,11.21-21.49,23.8.35,6.47,5.99,11.17,13.11,9.77ZM654.78,491.39c2.59-23.02,9.77-44.28,22.85-62.55,2.16-3.02,5.68-6.5,9.34-6.36s5.12,4.11,6.77,7.69c8.55-4.45,20.7-10.98,19.55-23.21,3.48,3.62,3.66,8.92,2.27,14.17l-15.1,57.02c-1.38,5.21-1.21,13.42,1.89,17.52,5.21,6.88,15.54,6.61,22.47,3,4.95-2.58,8.95-5.49,13.84-8.96,18.74,12.11,46.21,7.07,62.25-7.54,6.8-6.19,9.21-14.34,8.88-23.18-.67-18.05-12.35-19.79-24.14-35.81-2.86-3.88-4.46-9.29-2.44-13.82,3.18-7.16,12.72-10.27,19.32-6.01,3.9,2.52,3.55,8.72,3.3,12.95.16.91,3.17,1.48,4.36,1.25.87-.17,1.87-1.64,2.23-2.7l6.72-20c-16.97-10.55-43.43-3.58-57.26,10-8.18,8.03-8.02,21.22-2.22,30.58,4.9,7.9,11.52,13.63,17.75,20.1,6.83,7.09,7.62,17.02,1.49,24.04-5.52,6.33-17.54,7.95-23.51,1.13-7.37-8.42.99-22.33-1.01-23.34l-4.82-2.43c-3.96,7.63-7.45,14.62-10.73,22.7-1.39,3.42-3.87,5.43-7.46,4.94-9.19-1.24-3.21-18.01-1.18-25.15l11.07-38.96c2-7.05,4.15-14.73,4.59-21.18-12.38.82-23.4,7.22-34.63,5.03-9.01-1.76-16.14-3.84-25.05,2.5-7.87,5.6-12.99,13.64-20.11,22.71l.74-21.37-31.07,6.6c-.33.46-1.22,3.11-.51,3.46l3.33,1.67c2.45,1.23,3.46,5.69,2.7,9.02l-18.82,82.81,35.49-5.12c6.92-1-4.23-3.71-3.16-13.22ZM1003,529l8.49.73c-2.26-2.44-5.08-2.45-8.49-2.73-1.7-.14-3.81-.22-6.09-.58-45.88-7.26-91.14-13.07-137.92-13.72-91.91-1.28-173.49,7.82-263.74,24.94-11.08,10.06-22.23,19-35.25,26.5-4.79,2.76-8.94,5.17-13.79,9.59,7.7-.57,13.79-2.9,20.81-5.17,28.6-9.25,56.98-16.56,86.64-22.42,37.59-7.43,74.12-13.27,112.44-16.98,57.45-5.57,114.21-8.54,171.76-5.51l14.17.75,37.43,2.68c4.56.33,8.88.83,13.55,1.92ZM1164.66,615.22c4.92-9.36,8.04-17.86,9.02-27.07,1.57-27.43-14.44-43.78-38.02-53.78-10.02-2.77-19.96-5.28-30.69-5.29l-70.53-.09-.09,182.72,99.56-.07c14.21-.01,27.55-2.28,39.86-8.85,22.59-11.46,25.68-38.43,16.73-59.56-5.18-12.23-15.23-20.49-25.84-28.01ZM611.21,586.42c2.67-4.27,7.7-6.9,12.54-5.5,4.44,1.29,6.14,5.05,5.73,10.13h6.25s1.03-12.16,1.03-12.16c-8.83-1.77-17.75-2.68-26.22-.24-13.1,3.79-20.43,15.19-19.2,28.33.77,8.25,5.51,14.27,13.89,15.5,8.37,1.22,16.56,1.14,24.76-1.65l1.85-9.81-5.1.43c-1.63,5.29-6.11,8.23-11.26,7.79-13.91-1.2-10.39-23.04-4.28-32.83ZM641,597.89c-.76.31-2.17,1.29-2.77,2.02-.92,1.13.4,3.27,1.88,3.09.8,5.83,1.16,13.23,7.14,16.68,10.07,5.8,23.59,4.38,32.78-2.56,7.17-5.42,9.7-14.02,10.56-22.49.71-6.92-2.36-12.9-9.05-15.41-11.5-4.32-23.9-2.05-34.3,5.5-3.8,2.76-5.16,8.59-6.25,13.18ZM815.77,595.52c.3-7.32-3.02-14.38-9.61-16.75-9.86-3.55-22.02-2.36-30.76,3.79-11.76,8.27-13.92,24.47-6.1,36.2,11.44,6.61,25.87,6.25,36.37-2.09,6.17-4.9,9.77-12.75,10.11-21.15ZM745.03,606.94l-1.17.06c-2.09-9.94-3.21-18.64-4.51-28.79-2.98-.65-7.87-.76-10.5.04l-4.67,12.7c-1.91,5.2-3.36,9.73-7.88,15.04-2.07-8.47-2.81-15.62-3.17-23.8l4.49-4.02c-8.48-.8-15.84-.71-24.57,0,7.96,5.85,5.24,5.05,7.2,18.04l3.95,26.16,11.64-.29c3.84-8.44,6.18-14.81,11.7-23.25,2.45,8.78,3.17,15.58,4.48,23.65l11.76-.67c5.35-12.75,13.44-30.04,18.7-39.6.62-1.12,3.49-1.3,4.05-1.54s.27-1.77.07-2.88l-16.56.18,3.58,3.95c.62.68.12,3.19-.24,4.1l-8.35,20.91ZM844.82,608.94l5.7,13.43,18.02-.43-4.07-4.58-8.91-16.06c5.16-2.55,9.07-4.8,10.93-9.61,1.11-2.87.53-7.66-1.43-9.95-1.45-1.69-5.15-3.83-7.83-3.91-11.72-.36-21.44-.33-33.79.09l4.51,4.19-6.12,36.41c-2.06.69-3.13.97-4.8,3.34l23.61.07c-5.31-6.46-3.24-12.77-1.15-18.89,3.28.53,4.25,3.38,5.33,5.91ZM898.2,593.34l-3.12-1.38c2.43-13.9-.35-5.05,6.08-14.17h-24.28c4.08,5.99,4.09,8.82,3.3,13.89l-4.15,26.89-3.64.65c-.56.1-.23,2.3.1,2.88l22.01-.25c-1.49-2.15-4.05-4.4-3.8-5.88l1.97-11.75c.08-.46,1.39-1.56,1.8-1.8s2.03.9,2.24,1.36l6.09,13.06c.42.89-.38,3.83-.61,5.26l20.52-.2c-3.64-5.52-5.87-8.68-8.14-13.19l-8.12-16.11,20.62-14.53-19.49-.5,2.54,5.35c-3.57,4.19-7.32,8.28-11.92,10.4ZM571.28,605.6l.61-3.69-40.14-.02c-1.08,0-2.12,1.89-2.1,3.28.01.89,1.74.68,3.47.67l38.15-.24ZM980.18,605.6c1.06,0,2.06-2.94,1.36-3.2-.5-.18-1.93-.64-2.76-.64l-39.65.02c-1.26,0-1.1,3.9.03,3.9l41.01-.08ZM519.14,674.25l-8.83,16.45-3.82-22.43c-1.47-8.64-12.54,20.98-15.61,21.83-1.45-8.44-1.74-15.08-1.87-22.71l-12.61.3,3.74,1.74c.92.43,1.63,2.65,1.75,4.01l2.56,29.07,2.83.31c.76.08,1.2-1.53,1.8-2.48l11.94-19.25,2.86,20.99c2.57,1.06,4.81-.86,6.01-3.35,3.04-6.37,7.19-14.04,10.68-19.71.5-.81,1.23-3.51,1.66-4.13,1.13-1.63,4.36-4.07,6.7-5.02l1.31,1.22c-.97,10.39-2.8,20.54-5.58,31.02,1.39.58,5.23.35,6.45-.87l4.14-13.93c.6-2.01,4.88-5.63,6.89-4.53,5.19,2.85-3.31,14.17.39,18.48,3.49,3.17,8.66.68,11.69-2.48l4,3.22c4.37,3.52,13.72.68,16.83-4.84l-7.03,2.25c-1.27.41-4.5-.42-5.41-1.26-1.06-.98-1.53-4.25-.49-5.31,3.97-2.07,11.99-2.07,14.6-6,.77-1.16.51-5.04-.72-6.05-3.88-3.19-10.97-2.24-15.44.81-13.23,9.01-.8,18.98-12.32,17.37l1.78-13.13c.34-2.53-.67-6.86-3.95-7.1-2.97-.22-5.84.81-9.93,1.96l2.1-15.29-10.41,1.6-10.81,1.49c1.33.71,2.97,1.26,3.26,2.03s-.37,2.43-1.12,3.73ZM752.02,696.16l2.83-.77c.7-.19.46-2.22.29-2.98l-1.23-5.39c2.04-1.85,4.38-5.59,2.5-6.99-4.21-3.17-8.14-.38-13.15,1.63l2.04-16.79-10.45,1.41c1.76,1.44,3.29,2.11,3.28,3.05,0,.75-.16,2.79-.33,3.62l-5.99,29.26c1.47.44,5.42.21,6.01-1.18l3.33-7.81,6.16,8.98c1.3,1.9,7.36.11,8-1.25-1.65-1.53-2.87-3-3.3-4.78ZM902.56,677.02l-.7,2.28c-.17.56-1.54.78-2.06.9-1.11-1.39-4.35-1.63-5.84-1.26-6.44,1.57-16.87,11.58-11.26,21.24,4.5,7.75,13.5-.26,14.62.79l1.97,1.83c.54.5,2.42,1.68,3.03,1.26l1.65-1.13,2.45-1.21c.49-.24-1.77-2.56-1.68-3.15l3.39-22.54c.47-3.11,1.87-6.24,2.1-10.16l-9.03.69,2.68,2.3c.61.52.06,2.73-.15,3.55l-1.17,4.6ZM842.05,681.25c0,.48-.32,2.58.35,2.76l3.54.94c.11,2.1,1.69,5.43,3.2,7.08-.14,1.33-.56,2.82-1.14,3.99-1.09-1.01-4.09-.47-5.28.9-.69.8-.16,3.61.7,4.26s2.82,1.47,3.89,1.69c5.85,1.21,14.84-.71,15.17-7.4.29-5.99-8.3-6.6-10.34-11.66-.87-2.14,3.57-3.78,5.28-3.19,2.06.71,3.75,2.62,5.3,5.28l.97-5.05c-5.28-3.25-11.82-2.59-16.82.49l-2.88-.34c-.06-.74-.05-1.87-.65-1.89l-2.45-.09c-1.25-.05-3.21-.03-3.31-.84l-.59-4.55-10.88,7.01c2,.79,3.83,3.22,3.41,4.94l-2.15,8.69c-.69,2.79-1.51,6.55,2.13,8.32,2.94,1.43,7.68-.63,9.26-2.96-1.08.17-5.14-.24-5.06-1.49.33-5.44,1.58-11.4,2.86-16.47l5.48-.41ZM602.67,686.89c-3.48,6.57-1.42,13.85,3.98,15.66,5.83,1.95,10.91-1.04,13.98-4.36-4.7,1.68-9.87,1.39-11.96-1.56-.5-.71-.84-3.38-.14-3.71.53-.24,1.55-.67,2.35-.94l9.33-3.1c1.67-.55,3.36-3.81,3.26-5.4-.09-1.39-1.88-4.18-3.24-4.55-6.58-1.8-12.34.91-17.36,5.85-.68-2-1.39-5.27-2.64-5.96-3.05-1.65-7.96,1.13-9.7,4.46l-1.6-4.78-10.25,2.76,4.64,2.42-3.65,14.47c-.23.93-.42,4,.5,4.06l4.1.28c1.55.11,2.48-14.82,9.6-18.98,2.67.44,6.41,1.93,8.79,3.39ZM773.4,713.93c12.86,3.95,25.57-2.89,23.34-8.88-2.65-7.11-10.89-4.3-10.07-7.48,1.1-4.27,10.67-1.5,11.78-13.76,1.78-.88,3.09-1.62,3.48-2.44s-.96-3.64-2.03-3.35c-10.01,2.75-16.94-1.97-21.27,4.96-1.82,2.9-.74,7.01.4,10.47.48,1.73-2.45,4.9-3.78,6.07l1.75,3.07c.79,1.38-3.66,2-5.64,6.13-.55,1.15.61,4.77,2.04,5.21ZM933.12,698.13c2.99-1.57,4.26-5.27,4.36-9.1s-1.33-7.47-5.38-8.28c-3.64-3.89-9.51-1.96-14.25.25-3.27,1.53-4.54,3.56-5.89,6.83-1.47,3.56-2.27,6.14-.08,9.43,2.66,4,6.1,6.91,11.43,6.12,3.52-.52,7.25-2.42,9.81-5.24ZM982.99,699.59c-1.67.33-3.92-.61-4.61-1.78s-.77-4.85.34-5.17c4.53-.88,17.58-3.71,14.13-10.52-.68-1.35-3.21-3.32-4.98-3.5-7.33-.76-13.91,3.63-16.92,10.02-1.63,3.47-1.59,7.75.41,10.48s5.66,4.83,9.55,4.46c4.2-.4,8.08-2.61,10.42-5.65l-8.35,1.66ZM671.47,680.34c3.58,3.69,3.77,6.96,2.32,11.16-1.61,4.66-3.86,9.63-10.46,9.12l2.69-21.08-6.26.31c-.37,3.95-2.91,24-10.76,18.92.38-6.46,1.5-13.33,2.57-19.65l-10.52,1.09c2.56,1.98,3.29,3.57,2.92,6.01l-1.51,9.97c-.35,2.28,1.02,6.04,2.89,6.84,6.21,2.66,10.29-4.13,11.85-3.02l3.54,2.52c3.73,2.66,9.97-1.78,13.35-5.41,4.13-4.44,6.36-10.24,3.63-15.87-.46-.94-2.3-2.87-3.18-2.44l-3.07,1.51ZM690.2,703.02c.8.08,2.17.16,3.67,0,4.59-.46,9.08-3.37,11.17-6.95,2.31-3.94,3.77-10.78.09-14.1-7.51-6.78-20.81-2.49-23.86,6.66-1.08,3.24-.55,7.04.86,9.79,1.14,2.23,4.48,3.84,8.06,4.59ZM725.24,684.03l4.8,1.1c1.55.36,2.25-4.14,1.03-5.13s-4.48-1.39-5.82-.58c-7.48,4.54-.34-3.95-16.33,2.06l3.68,1.34c.59.21.8,2.4.65,3.07l-3.69,16.31c2.05.34,4.97.31,6.11-.41,1.27-4.19,4.62-18.89,9.56-17.75ZM808.46,692.95l11.12-2.73c1.64-.4,3.76-2.86,4.51-4.24.65-1.21-.09-4.97-1.41-5.77-4.8-2.9-11.9-1.5-16.69,2.14-4.02,3.05-6.42,8.41-5.32,14.81.55,3.18,5.14,6.09,7.9,6.32,4.23.35,7.62-.81,10.15-4.37l-4.75.39c-1.76.15-3.87-.38-4.99-1.17-.96-.68-1.72-5.08-.52-5.38ZM948.85,691.88c.76.18,2.54.54,2.65,1.33l.57,4.14c.15,1.08,2.85.94,3.98.71-.4,1.55,1.44,4.84,2.69,5.1,2.56.52,7.01-1.37,8.74-3.38l-4.37-1.35,1.98-11.6c.39-2.3-.74-6.24-2.45-7.17s-5.58-.95-7.2-.29l-3.8,1.54c-.82.33-.99-4.47-12.31.22l3.97,2.5-3.74,18.8c.25.35,3.67.77,4.89.65,2.58-.25,1.82-9.37,4.39-11.19ZM995.29,699.07c.05,2.91,1.16,5.21,4.15,4.75,1.94-.3,3.35-2.5,2.98-5.11-.21-1.5-3.03-2.57-4.69-2.15l-2.16.55c-.36.09-.29,1.12-.28,1.97Z"/>
  <path class="st2" d="M1003,529v-2c3.42.28,6.23.29,8.49,2.73l-8.49-.73Z"/>
  <g>
    <path class="st5" d="M654.78,491.39c-1.07,9.51,10.08,12.22,3.16,13.22l-35.49,5.12,18.82-82.81c.76-3.33-.25-7.79-2.7-9.02l-3.33-1.67c-.71-.36.18-3,.51-3.46l31.07-6.6-.74,21.37c7.13-9.07,12.25-17.12,20.11-22.71,8.91-6.34,16.04-4.26,25.05-2.5,11.23,2.19,22.25-4.21,34.63-5.03-.43,6.45-2.58,14.13-4.59,21.18l-11.07,38.96c-2.03,7.14-8.01,23.91,1.18,25.15,3.6.48,6.08-1.52,7.46-4.94,3.27-8.08,6.77-15.07,10.73-22.7l4.82,2.43c2.01,1.01-6.35,14.92,1.01,23.34,5.97,6.82,17.99,5.2,23.51-1.13,6.13-7.02,5.33-16.95-1.49-24.04-6.23-6.47-12.85-12.2-17.75-20.1-5.8-9.36-5.95-22.55,2.22-30.58,13.83-13.58,40.29-20.54,57.26-10l-6.72,20c-.36,1.06-1.36,2.53-2.23,2.7-1.18.23-4.2-.34-4.36-1.25.25-4.24.6-10.44-3.3-12.95-6.6-4.27-16.14-1.15-19.32,6.01-2.02,4.54-.42,9.94,2.44,13.82,11.79,16.02,23.46,17.76,24.14,35.81.33,8.83-2.08,16.99-8.88,23.18-16.05,14.61-43.51,19.64-62.25,7.54-4.9,3.47-8.89,6.38-13.84,8.96-6.93,3.61-17.26,3.89-22.47-3-3.1-4.09-3.27-12.31-1.89-17.52l15.1-57.02c1.39-5.24,1.21-10.55-2.27-14.17,1.15,12.22-11,18.75-19.55,23.21-1.65-3.58-3.14-7.55-6.77-7.69s-7.18,3.33-9.34,6.36c-13.08,18.27-20.26,39.54-22.85,62.55Z"/>
    <path class="st5" d="M963.79,429.7c-5.23,20.28-19.65,37.38-37.39,47.3-11.91,6.66-26.87,6.88-39.28,2.95-6.99-2.22-9.64-9.07-13.46-14.97l-11.25,11.36c-6.34,6.4-14.13,11.36-23.33,12.48-6.74.82-15.43-1.88-18.04-8.56s-2.47-15.71-.31-22.91l18.36-61.44-15.32-.77,5.64-9.8c16.99-.82,15.16-9.84,19.77-24.55,1.19-3.81,1.36-6.97-.55-10.45l33.54-9.79-11.36,39.27,17.69-.33c-.92,3.26-2.63,9.56-5.79,10.42-5.18,1.34-10.5,1.32-15.86,1.93l-8.32,25.76c-4.69,14.51-9.07,28.27-12.4,43.35-.39,1.78,1.04,5.79,2.17,7,1.27,1.36,4.94,2.47,6.96,1.8,11.47-3.79,17.79-13.97,18.05-25.7.17-7.59.71-15.39,3.84-22.3,11.74-25.96,40.59-49,70.24-40.96,6.67,1.81,14.11,7.02,15.52,14.23,2.15,10.98,3.94,22.86.89,34.67ZM925.3,456.39c10.53-18.2,15.69-38.1,13.49-59.29-.23-2.25-1.86-5.28-3.49-6.06-6.83-3.26-15.44,5.07-19.04,10.35-11.46,16.81-17.71,37.09-17.25,57.49.1,4.45,2.08,8.71,5.3,10.48,10.05,5.51,17.23-6.47,20.99-12.97Z"/>
    <path class="st5" d="M1021.34,448.23c-12.23,13.32-24.98,28.2-45.75,27.03-5.69-.32-10.18-3.98-10.86-9.89-.64-5.57-.29-11.82,1.25-17.39l4.89-17.6,16.62-55.45,12.42-43.46c2.62-9.18-11.76-13.43-3.36-15.78,12.28-3.45,23.66-6.41,36.88-8.9l-11.21,38.86-16.19,54.68-12.22,42.76c-.61,2.13.78,6.31,2.13,7.59,5.55,5.29,19.27-4.31,23.93-11.37.97.35,3.32,2.37,3.88,3.65s-1.33,4.11-2.41,5.28Z"/>
    <path class="st5" d="M740.57,381.68c-7.12,1.4-12.76-3.3-13.11-9.77-.69-12.59,8.92-23.18,21.49-23.8,6.3-.31,11.39,4.71,10.99,10.93-.7,10.83-8.21,20.44-19.37,22.64Z"/>
    <path class="st2" d="M925.3,456.39c-3.76,6.49-10.93,18.48-20.99,12.97-3.22-1.77-5.2-6.03-5.3-10.48-.46-20.4,5.79-40.68,17.25-57.49,3.6-5.29,12.21-13.61,19.04-10.35,1.64.78,3.26,3.82,3.49,6.06,2.2,21.19-2.96,41.09-13.49,59.29Z"/>
    <g>
      <path class="st5" d="M500.68,371.04c12.87-4.09,24.99-7.88,37.31-12.76,4.39-1.74,8.95-2.85,12.75-.83l-9.64,29.08c-4.3,12.96-8.21,24.86-11.75,39.19,29.79-8.47,68.35-29.36,78.97-58.63,2.82-7.76,3.85-16.78.14-24.34-11.69-23.81-59.46-12.93-79.62-7.14-22.76,6.54-43.86,16.73-61.84,32.2-7.36,6.33-17.36,17.15-13.37,26.6,3.65,8.64,17.35,7.62,25.27,6.66.76-.03,1.43,3.86.56,4.5-15.14,8.25-49.78,14.6-58.8-4.96-3.85-8.34-1.18-18.51,4.32-25.88,7.46-10.01,17.09-17.17,27.46-24.26,24.19-16.54,50.49-28.3,78.94-35.78,29.65-7.79,72.74-13.06,99.1,4.83,21.5,14.59,15.99,45.52,1.29,62.28-17.1,19.49-36.41,31.07-60.53,43.55,20.87,1.89,43.38,11.13,46.56,33.76,2.17,15.44-1.56,30.58-10.31,43.56-4.36,6.47-8.97,12.82-14.67,18.33-20.22,19.59-44.61,33.33-71.33,42.18-33.51,11.1-84.85,21.84-114.3-2.48-9.98-8.24-13.48-22.05-12.23-34.69s7.32-23.84,15.77-33.56c22.59-25.98,50.15-40.72,81.95-54l15.57-47.66c1.28-3.92,2.01-9.46-.35-12.8-.96-1.37-4.54-1.46-6.96-1.56l-.25-5.4ZM431.59,529.38c2.22,8.85,8.69,15.53,17.29,17.93,29.45,8.22,67.11-2.12,93.79-16.43,25.16-13.5,47.98-41.58,38.85-71.47-2.58-8.45-11.22-14.32-19.75-16.17-13.2-2.86-26.4-.98-38.76,3.58-5.37,17.77-10.14,34.32-12.85,52.22-.49,3.26.62,8.13,2.63,9.8,2.67,2.23,6.15,2.5,10.32,2.86.28,1.42-.48,5.08-1.94,6.55l-59.03,8.79c-6.25-6.65,8.72-4.53,14.15-23.9,4.08-14.57,7.34-28.89,10.43-43.05-27.26,9.65-63.07,37.62-55.11,69.28Z"/>
      <path class="st6" d="M431.59,529.38c-7.95-31.66,27.85-59.63,55.11-69.28-3.1,14.17-6.35,28.48-10.43,43.05-5.43,19.37-20.4,17.25-14.15,23.9l59.03-8.79c1.47-1.47,2.22-5.13,1.94-6.55-4.17-.36-7.65-.64-10.32-2.86-2.01-1.67-3.13-6.54-2.63-9.8,2.71-17.9,7.48-34.45,12.85-52.22,12.35-4.56,25.56-6.44,38.76-3.58,8.53,1.85,17.16,7.72,19.75,16.17,9.14,29.88-13.69,57.97-38.85,71.47-26.68,14.31-64.33,24.65-93.79,16.43-8.6-2.4-15.06-9.08-17.29-17.93Z"/>
    </g>
  </g>
  <g>
    <path class="st3" d="M571.28,605.6l-38.15.24c-1.73.01-3.46.22-3.47-.67-.02-1.38,1.02-3.28,2.1-3.28l40.14.02-.61,3.69Z"/>
    <g>
      <path class="st7" d="M519.14,674.25l3.07.64c-.43.62-1.16,3.32-1.66,4.13-3.49,5.67-7.64,13.34-10.68,19.71-1.19,2.5-3.44,4.42-6.01,3.35l-2.86-20.99-11.94,19.25c-.59.96-1.04,2.57-1.8,2.48l-2.83-.31-2.56-29.07c-.12-1.36-.82-3.58-1.75-4.01l-3.74-1.74,12.61-.3c.13,7.63.42,14.27,1.87,22.71,3.08-.85,14.14-30.47,15.61-21.83l3.82,22.43,8.83-16.45Z"/>
      <path class="st3" d="M602.67,686.89c-2.38-1.47-6.12-2.95-8.79-3.39-7.11,4.16-8.05,19.09-9.6,18.98l-4.1-.28c-.92-.06-.74-3.13-.5-4.06l3.65-14.47-4.64-2.42,10.25-2.76,1.6,4.78c1.75-3.33,6.65-6.11,9.7-4.46,1.25.7,1.96,3.96,2.64,5.96,5.02-4.94,10.78-7.66,17.36-5.85,1.36.37,3.15,3.16,3.24,4.55.1,1.59-1.59,4.85-3.26,5.4l-9.33,3.1c-.79.26-1.82.69-2.35.94-.7.32-.36,3,.14,3.71,2.09,2.95,7.25,3.24,11.96,1.56-3.08,3.33-8.15,6.32-13.98,4.36-5.4-1.81-7.46-9.09-3.98-15.66ZM617.73,684.23c.28-.69.12-2.98-.5-3.25-4.28-1.88-8.15,4.64-8.45,8.33,3.81.26,7.36-1.13,8.94-5.08Z"/>
      <path class="st3" d="M530.22,671.08c.43-.52,1.26-1.5.91-1.61s-1.05-.27-1.57-.39c-.34-.08-.34.25-.65.78-2.34.95-5.58,3.39-6.7,5.02l-3.07-.64c.75-1.3,1.41-2.96,1.12-3.73s-1.93-1.32-3.26-2.03l10.81-1.49,10.41-1.6-2.1,15.29c4.09-1.15,6.96-2.18,9.93-1.96,3.28.24,4.29,4.57,3.95,7.1l-1.78,13.13c11.52,1.62-.91-8.36,12.32-17.37,4.47-3.05,11.55-4,15.44-.81,1.23,1.01,1.49,4.89.72,6.05-2.61,3.93-10.63,3.93-14.6,6-1.03,1.06-.57,4.33.49,5.31.91.84,4.14,1.66,5.41,1.26l7.03-2.25c-3.11,5.52-12.46,8.36-16.83,4.84l-4-3.22c-3.03,3.16-8.21,5.65-11.69,2.48-3.7-4.31,4.8-15.63-.39-18.48-2-1.1-6.29,2.52-6.89,4.53l-4.14,13.93c-1.22,1.22-5.05,1.45-6.45.87,2.78-10.49,4.61-20.64,5.58-31.02ZM570.91,683.79c.04-1.17.02-2.62-.42-2.71-5.11-1.01-8.57,4.75-8.5,8.57,4.05.66,8.75-1.32,8.92-5.87Z"/>
      <path class="st3" d="M773.4,713.93c-1.43-.44-2.59-4.06-2.04-5.21,1.98-4.13,6.43-4.75,5.64-6.13l-1.75-3.07c1.33-1.17,4.26-4.34,3.78-6.07-1.14-3.46-2.22-7.57-.4-10.47,4.34-6.94,11.27-2.22,21.27-4.96,1.07-.29,2.43,2.52,2.03,3.35s-1.7,1.56-3.48,2.44c-1.1,12.26-10.68,9.49-11.78,13.76-.82,3.18,7.42.37,10.07,7.48,2.23,5.99-10.49,12.83-23.34,8.88ZM791.7,685.45c-.23-1.75-1.16-3.85-1.97-4.48-.68-.53-2.9-.35-3.59.19-3,2.32-4.45,9.46-1.17,11.38,3.83,2.24,7.27-3.07,6.73-7.08ZM791.93,708.04c-4.15-1.97-8.14-3.35-12.02-3.39-2.72-.03-3.89,5.74-1.67,7.03,4.75,2.76,11.56,2.19,13.69-3.65Z"/>
      <path class="st3" d="M671.47,680.34l3.07-1.51c.88-.43,2.72,1.5,3.18,2.44,2.73,5.63.5,11.43-3.63,15.87-3.37,3.63-9.62,8.07-13.35,5.41l-3.54-2.52c-1.56-1.11-5.65,5.68-11.85,3.02-1.87-.8-3.24-4.56-2.89-6.84l1.51-9.97c.37-2.45-.36-4.03-2.92-6.01l10.52-1.09c-1.07,6.32-2.19,13.18-2.57,19.65,7.85,5.07,10.4-14.97,10.76-18.92l6.26-.31-2.69,21.08c6.6.5,8.85-4.47,10.46-9.12,1.45-4.2,1.26-7.48-2.32-11.16Z"/>
      <path class="st3" d="M753.91,687.02l-5.79,2.26,3.9,6.87c.44,1.77,1.65,3.24,3.3,4.78-.64,1.36-6.7,3.15-8,1.25l-6.16-8.98-3.33,7.81c-.59,1.38-4.54,1.62-6.01,1.18l5.99-29.26c.17-.82.33-2.87.33-3.62,0-.94-1.52-1.61-3.28-3.05l10.45-1.41-2.04,16.79c5.01-2.01,8.94-4.8,13.15-1.63,1.87,1.41-.46,5.15-2.5,6.99ZM750.89,684.89c.43-.18-.04-3.21-.5-3.12-2.73.49-9.24,2.24-8.89,7.18l9.39-4.06Z"/>
      <path class="st3" d="M956.04,698.06l2.88-11.21c.31-1.19-.79-4.02-1.82-4.31-3.88-1.06-8.06,5-8.26,9.33-2.57,1.82-1.82,10.94-4.39,11.19-1.23.12-4.65-.3-4.89-.65l3.74-18.8-3.97-2.5c11.32-4.68,11.5.12,12.31-.22l3.8-1.54c1.62-.66,5.52-.62,7.2.29s2.84,4.87,2.45,7.17l-1.98,11.6,4.37,1.35c-1.72,2.02-6.17,3.9-8.74,3.38-1.25-.25-3.09-3.55-2.69-5.1Z"/>
      <path class="st3" d="M982.99,699.59l8.35-1.66c-2.34,3.05-6.22,5.25-10.42,5.65-3.89.37-7.51-1.66-9.55-4.46s-2.05-7.02-.41-10.48c3.01-6.39,9.59-10.78,16.92-10.02,1.78.18,4.3,2.15,4.98,3.5,3.45,6.8-9.6,9.64-14.13,10.52-1.11.32-1.03,4.01-.34,5.17s2.94,2.11,4.61,1.78ZM987.27,684.3c.2-.79-.11-2.99-.77-3.16-4.09-1.03-8.03,4.31-8.6,8.5,4,.76,8.22-.7,9.37-5.34Z"/>
      <path class="st3" d="M693.87,703.03c6.83-5.86,9.62-21.52,3.39-22.81-8-1.65-11.73,15.49-7.07,22.8-3.58-.74-6.92-2.36-8.06-4.59-1.41-2.75-1.94-6.55-.86-9.79,3.04-9.16,16.35-13.45,23.86-6.66,3.67,3.32,2.22,10.16-.09,14.1-2.09,3.57-6.58,6.48-11.17,6.95Z"/>
      <path class="st3" d="M808.46,692.95c-1.21.3-.44,4.7.52,5.38,1.12.79,3.24,1.31,4.99,1.17l4.75-.39c-2.54,3.56-5.93,4.72-10.15,4.37-2.76-.23-7.36-3.14-7.9-6.32-1.1-6.4,1.3-11.76,5.32-14.81,4.8-3.64,11.89-5.04,16.69-2.14,1.32.8,2.07,4.56,1.41,5.77-.75,1.38-2.86,3.84-4.51,4.24l-11.12,2.73ZM817.6,685.23c.41-.8.07-3.42-.65-3.77-4.41-2.17-7.99,4.14-8.84,8.45,3.73.26,7.65-1.07,9.49-4.68Z"/>
      <path class="st3" d="M725.24,684.03c-4.94-1.13-8.29,13.57-9.56,17.75-1.14.72-4.06.74-6.11.41l3.69-16.31c.15-.67-.06-2.85-.65-3.07l-3.68-1.34c15.99-6.01,8.85,2.48,16.33-2.06,1.33-.81,4.63-.38,5.82.58s.52,5.49-1.03,5.13l-4.8-1.1Z"/>
      <path class="st3" d="M844,681c-.49.06-1.46.21-1.95.25l-5.48.41c-1.28,5.07-2.53,11.03-2.86,16.47-.08,1.25,3.98,1.66,5.06,1.49-1.58,2.33-6.31,4.4-9.26,2.96-3.64-1.77-2.82-5.53-2.13-8.32l2.15-8.69c.43-1.72-1.41-4.15-3.41-4.94l10.88-7.01.59,4.55c.11.81,2.06.8,3.31.84l2.45.09c.6.02.59,1.15.65,1.89Z"/>
      <path class="st3" d="M932.11,680.75l-1.22,2.11c-1.85-2.24-5.87-4.55-8.49-1.21-3.82,4.85-6.21,14.45-1.62,19.51,2.11,2.33,7.63-1.88,8.36-4.25l4,1.22c-2.56,2.81-6.29,4.72-9.81,5.24-5.33.79-8.77-2.12-11.43-6.12-2.19-3.29-1.39-5.86.08-9.43,1.35-3.27,2.62-5.3,5.89-6.83,4.74-2.21,10.61-4.14,14.25-.25Z"/>
      <path class="st3" d="M847.31,702.87l2.57-1.7,3.09-.19c1.47-.09,4.38-2.08,3.32-3.76-1.78-2.82-4.75-4.15-7.14-5.2-1.51-1.65-3.09-4.98-3.2-7.08l.94-3.61c5.01-3.09,11.54-3.74,16.82-.49l-.97,5.05c-1.55-2.67-3.24-4.57-5.3-5.28-1.71-.59-6.15,1.05-5.28,3.19,2.04,5.06,10.63,5.67,10.34,11.66-.33,6.69-9.32,8.62-15.17,7.4Z"/>
      <path class="st2" d="M693.87,703.03c-1.51.15-2.88.07-3.67,0-4.66-7.31-.93-24.45,7.07-22.8,6.23,1.29,3.43,16.95-3.39,22.81Z"/>
      <path class="st3" d="M896.89,696.7c1.39.5,2.12,2.78,2.75,4.78l4.32,1.46-1.65,1.13c-.61.42-2.49-.75-3.03-1.26l-1.97-1.83c-1.12-1.04-10.12,6.97-14.62-.79-5.61-9.66,4.82-19.68,11.26-21.24-1.51,5.27-8.97,10.36-4.42,20.83,2.53-.74,5.75-2.09,7.36-3.07Z"/>
      <path class="st2" d="M899.79,680.2c1.55,1.93,1.62,6.82.58,9.04l-3.49,7.45c-1.61.98-4.83,2.33-7.36,3.07-4.55-10.46,2.91-15.56,4.42-20.83,1.49-.36,4.73-.12,5.84,1.26Z"/>
      <path class="st7" d="M908.12,676.03l-3.39,22.54c-.09.58,2.17,2.9,1.68,3.15l-2.45,1.21-4.32-1.46c-.62-1.99-1.36-4.27-2.75-4.78l3.49-7.45c1.04-2.22.97-7.11-.58-9.04.52-.12,1.89-.34,2.06-.9l.7-2.28c1.74-.55,3.75-.9,5.56-.98Z"/>
      <path class="st2" d="M956.04,698.06c-1.13.22-3.83.36-3.98-.71l-.57-4.14c-.11-.79-1.88-1.15-2.65-1.33.19-4.34,4.38-10.4,8.26-9.33,1.03.28,2.13,3.11,1.82,4.31l-2.88,11.21Z"/>
      <path class="st7" d="M933.12,698.13l-4-1.22c1.23-4.03,1.83-9.87,1.76-14.05l1.22-2.11c4.04.81,5.48,4.49,5.38,8.28s-1.37,7.53-4.36,9.1Z"/>
      <path class="st3" d="M908.12,676.03c-1.81.08-3.82.43-5.56.98l1.17-4.6c.21-.82.76-3.02.15-3.55l-2.68-2.3,9.03-.69c-.22,3.93-1.63,7.05-2.1,10.16Z"/>
      <path class="st3" d="M995.29,699.07c-.01-.85-.08-1.87.28-1.97l2.16-.55c1.66-.42,4.48.65,4.69,2.15.37,2.6-1.04,4.81-2.98,5.11-2.99.46-4.1-1.83-4.15-4.75Z"/>
      <path class="st7" d="M848,696.02c0,.34,0,.78.06,1.02.36,1.23,1.14,2.94,1.82,4.13l-2.57,1.7c-1.06-.22-3.03-1.04-3.89-1.69s-1.4-3.46-.7-4.26c1.19-1.37,4.19-1.91,5.28-.9Z"/>
      <path class="st2" d="M753.91,687.02l1.23,5.39c.17.76.41,2.79-.29,2.98l-2.83.77-3.9-6.87,5.79-2.26Z"/>
      <path class="st2" d="M852.96,700.98c-.11-.62.11-3.66-.86-3.71l-4.04-.23c-.07-.23-.05-.68-.06-1.02.58-1.17,1-2.66,1.14-3.99,2.39,1.05,5.36,2.38,7.14,5.2,1.06,1.67-1.85,3.67-3.32,3.76Z"/>
      <path class="st2" d="M844,681l2.88.34-.94,3.61-3.54-.94c-.67-.18-.36-2.28-.35-2.76.49-.04,1.46-.18,1.95-.25Z"/>
      <path class="st2" d="M530.22,671.08l-1.31-1.22c.3-.53.3-.87.65-.78.52.13,1.22.29,1.57.39s-.48,1.09-.91,1.61Z"/>
      <path class="st2" d="M617.73,684.23c-1.58,3.95-5.14,5.33-8.94,5.08.3-3.68,4.16-10.21,8.45-8.33.62.27.78,2.56.5,3.25Z"/>
      <path class="st2" d="M791.93,708.04c-2.13,5.84-8.94,6.41-13.69,3.65-2.22-1.29-1.05-7.06,1.67-7.03,3.88.04,7.87,1.42,12.02,3.39Z"/>
      <path class="st2" d="M791.7,685.45c.54,4.01-2.89,9.32-6.73,7.08-3.28-1.92-1.83-9.05,1.17-11.38.69-.54,2.91-.72,3.59-.19.81.64,1.74,2.73,1.97,4.48Z"/>
      <path class="st2" d="M750.89,684.89l-9.39,4.06c-.36-4.95,6.16-6.7,8.89-7.18.46-.08.93,2.94.5,3.12Z"/>
      <path class="st2" d="M987.27,684.3c-1.15,4.64-5.36,6.11-9.37,5.34.57-4.18,4.5-9.53,8.6-8.5.66.17.97,2.36.77,3.16Z"/>
      <path class="st2" d="M570.91,683.79c-.17,4.55-4.87,6.53-8.92,5.87-.08-3.82,3.39-9.58,8.5-8.57.44.09.47,1.54.42,2.71Z"/>
      <path class="st2" d="M817.6,685.23c-1.84,3.61-5.76,4.94-9.49,4.68.84-4.31,4.43-10.63,8.84-8.45.72.35,1.06,2.97.65,3.77Z"/>
      <path class="st2" d="M930.88,682.86c.07,4.18-.53,10.02-1.76,14.05-.72,2.37-6.25,6.57-8.36,4.25-4.58-5.06-2.19-14.66,1.62-19.51,2.63-3.34,6.64-1.03,8.49,1.21Z"/>
      <path class="st6" d="M852.96,700.98l-3.09.19c-.67-1.19-1.46-2.89-1.82-4.13l4.04.23c.97.05.75,3.09.86,3.71Z"/>
    </g>
    <g>
      <path class="st5" d="M1003,527v2c-4.67-1.09-8.99-1.6-13.55-1.92l-37.43-2.68-14.17-.75c-57.55-3.03-114.31-.07-171.76,5.51-38.32,3.72-74.85,9.55-112.44,16.98-29.66,5.86-58.04,13.18-86.64,22.42-7.02,2.27-13.1,4.59-20.81,5.17,4.85-4.42,8.99-6.83,13.79-9.59,13.02-7.5,24.17-16.44,35.25-26.5,90.25-17.12,171.84-26.22,263.74-24.94,46.78.65,92.04,6.46,137.92,13.72,2.28.36,4.39.43,6.09.58Z"/>
      <path class="st3" d="M980.18,605.6l-41.01.08c-1.14,0-1.3-3.89-.03-3.9l39.65-.02c.84,0,2.27.46,2.76.64.7.26-.3,3.19-1.36,3.2Z"/>
      <g>
        <path class="st7" d="M743.85,607l.67,3.17.51-3.24,8.35-20.91c.36-.91.86-3.41.24-4.1l-3.58-3.95,16.56-.18c.19,1.11.48,2.64-.07,2.88s-3.43.42-4.05,1.54c-5.26,9.56-13.36,26.85-18.7,39.6l-11.76.67c-1.32-8.07-2.03-14.87-4.48-23.65-5.51,8.44-7.86,14.82-11.7,23.25l-11.64.29-3.95-26.16c-1.96-12.99.76-12.18-7.2-18.04,8.74-.72,16.09-.81,24.57,0l-4.49,4.02c.36,8.18,1.1,15.33,3.17,23.8,4.53-5.3,5.97-9.84,7.88-15.04l4.67-12.7c2.63-.8,7.52-.69,10.5-.04,1.3,10.15,2.41,18.85,4.51,28.79Z"/>
        <path class="st7" d="M844.82,608.94c-1.07-2.53-2.05-5.37-5.33-5.91-2.09,6.12-4.17,12.43,1.15,18.89l-23.61-.07c1.66-2.37,2.74-2.65,4.8-3.34l6.12-36.41-4.51-4.19c12.34-.42,22.06-.45,33.79-.09,2.68.08,6.38,2.22,7.83,3.91,1.96,2.29,2.54,7.08,1.43,9.95-1.86,4.81-5.77,7.06-10.93,9.61l8.91,16.06,4.07,4.58-18.02.43-5.7-13.43ZM852.24,594.03c2.5-3.75,1.66-8.16-.68-10.32s-7.64-3.08-9.76-1.05l-1.97,16c4.89.19,9.71-.56,12.42-4.63Z"/>
        <path class="st7" d="M895.08,591.96l-1.06,6.05,4.17-4.66c4.6-2.12,8.35-6.22,11.92-10.4l-2.54-5.35,19.49.5-20.62,14.53,8.12,16.11c2.27,4.51,4.5,7.67,8.14,13.19l-20.52.2c.23-1.44,1.03-4.37.61-5.26l-6.09-13.06c-.21-.45-1.82-1.59-2.24-1.36s-1.73,1.34-1.8,1.8l-1.97,11.75c-.25,1.48,2.31,3.73,3.8,5.88l-22.01.25c-.33-.58-.66-2.78-.1-2.88l3.64-.65,4.15-26.89c.78-5.06.77-7.9-3.3-13.89h24.28c-6.43,9.12-3.66.27-6.08,14.17Z"/>
        <path class="st7" d="M815.77,595.52c-.34,8.39-3.94,16.25-10.11,21.15-10.49,8.34-24.93,8.7-36.37,2.09-7.81-11.74-5.66-27.93,6.1-36.2,8.74-6.15,20.9-7.34,30.76-3.79,6.59,2.37,9.9,9.43,9.61,16.75ZM800.76,585.38c-.68-3.18-4.7-5.08-7.42-5.03-15.07.3-18.68,37.45-6.83,39,13.5,1.77,16.5-23.41,14.25-33.97Z"/>
        <path class="st7" d="M640.11,603c.23-1.62.52-3.52.89-5.11,1.08-4.59,2.44-10.42,6.25-13.18,10.4-7.55,22.79-9.81,34.3-5.5,6.69,2.51,9.76,8.49,9.05,15.41-.87,8.47-3.39,17.06-10.56,22.49-9.18,6.95-22.7,8.37-32.78,2.56-5.99-3.45-6.34-10.85-7.14-16.68ZM675.38,584.64c-.72-3.06-5.23-4.47-7.85-4.16-2.19.26-5.93,2.04-7.5,4.51-6.16,9.67-9.54,33.64,2.49,34.25,12.59.64,15.34-23.96,12.85-34.6Z"/>
        <path class="st3" d="M611.21,586.42c-6.12,9.79-9.63,31.62,4.28,32.83,5.15.45,9.63-2.49,11.26-7.79l5.1-.43-1.85,9.81c-8.2,2.79-16.39,2.87-24.76,1.65-8.38-1.22-13.13-7.25-13.89-15.5-1.22-13.14,6.1-24.55,19.2-28.33,8.46-2.45,17.39-1.53,26.22.24l-1.03,12.17h-6.25c.42-5.09-1.29-8.85-5.73-10.14-4.84-1.41-9.87,1.23-12.54,5.5Z"/>
        <polygon class="st2" points="898.2 593.34 894.02 598 895.08 591.96 898.2 593.34"/>
        <path class="st2" d="M641,597.89c-.37,1.58-.66,3.49-.89,5.11-1.48.18-2.8-1.96-1.88-3.09.6-.73,2.01-1.71,2.77-2.02Z"/>
        <polygon class="st2" points="743.85 607 745.03 606.94 744.52 610.17 743.85 607"/>
        <path class="st2" d="M852.24,594.03c-2.71,4.07-7.53,4.82-12.42,4.63l1.97-16c2.12-2.03,7.41-1.11,9.76,1.05s3.18,6.56.68,10.32Z"/>
        <path class="st2" d="M800.76,585.38c2.25,10.57-.75,35.75-14.25,33.97-11.85-1.55-8.24-38.7,6.83-39,2.73-.05,6.75,1.85,7.42,5.03Z"/>
        <path class="st2" d="M675.38,584.64c2.49,10.64-.26,35.24-12.85,34.6-12.03-.61-8.65-24.58-2.49-34.25,1.58-2.48,5.31-4.26,7.5-4.51,2.62-.31,7.13,1.1,7.85,4.16Z"/>
      </g>
      <g>
        <path class="st3" d="M1164.66,615.22c10.61,7.52,20.66,15.77,25.84,28.01,8.95,21.12,5.86,48.1-16.73,59.56-12.31,6.57-25.65,8.84-39.86,8.85l-99.56.07.09-182.72,70.53.09c10.73.01,20.67,2.53,30.69,5.29,23.58,10,39.58,26.35,38.02,53.78-.98,9.21-4.1,17.71-9.02,27.07ZM1159.93,615.83c11.25-14.92,15.15-35.03,6.37-52.06-7.51-14.56-21.64-23.89-36.9-28.51-9.65-2.1-18.57-3.58-28.43-3.59h-64.07s-.11,177.03-.11,177.03l101.9-.09c10.77,0,20.42-2.45,30.24-6.37,8.32-4.48,16.5-10.28,20.18-19.31,10.96-26.89-4.14-54.18-29.17-67.11Z"/>
        <path class="st2" d="M1159.93,615.83c25.04,12.93,40.13,40.22,29.17,67.11-3.68,9.03-11.86,14.83-20.18,19.31-9.82,3.91-19.47,6.36-30.24,6.37l-101.9.09.11-177.04h64.07c9.86.01,18.78,1.5,28.43,3.6,15.26,4.62,29.39,13.95,36.9,28.51,8.79,17.03,4.89,37.15-6.37,52.06ZM1085.95,618.14l80.37-36.36c-.77-16.9-11.58-30.68-26.88-37.59-20.79-9.4-32.57-8.35-54.57-8.23l-43.26.23.02,102.96c15.41-6.71,30.56-12.78,44.31-21.01ZM1085.77,638.93l-44.33,20.99.12,44.41,44.49-.29,51.94.15c16.99.05,41.95-6.62,47.66-25.85,5.45-18.36-.61-37.58-15.24-49.8-5.19-4.33-11.06-7.71-17.34-11.04,2.92-5.21,9.14-7.76,10.21-15.85l-77.51,37.26Z"/>
        <path class="st1" d="M1086.06,704.05l-.28-65.12,77.51-37.26c-1.07,8.09-7.29,10.64-10.21,15.85,6.29,3.32,12.16,6.71,17.34,11.04,14.63,12.21,20.7,31.43,15.24,49.8-5.71,19.23-30.67,25.9-47.66,25.85l-51.94-.15Z"/>
        <path class="st0" d="M1085.95,618.14l-.34-75.11c-.01-2.63-.29-5.05-.74-7.08,21.99-.12,33.78-1.16,54.57,8.23,15.3,6.91,26.11,20.69,26.88,37.59l-80.37,36.36Z"/>
        <path class="st4" d="M1084.88,535.96c.45,2.02.73,4.44.74,7.08l.34,75.11c-13.76,8.23-28.9,14.3-44.31,21.01l-.02-102.96,43.26-.23Z"/>
        <polygon class="st8" points="1085.77 638.93 1086.06 704.05 1041.57 704.33 1041.45 659.92 1085.77 638.93"/>
      </g>
    </g>
  </g>
</svg>